<svg width="1200" height="630" viewBox="0 0 1200 630" xmlns="http://www.w3.org/2000/svg"><mask id="satori_om-id"><rect x="0" y="0" width="1200" height="630" fill="#fff"/></mask><rect x="0" y="0" width="1200" height="630" fill="white"/><mask id="satori_om-id-0"><rect x="42" y="42" width="0" height="0" fill="#fff"/></mask><mask id="satori_om-id-1"><rect x="325" y="155" width="550" height="320" fill="#fff"/></mask><path fill="black" d="M449.5 217.5L443.5 217.5L435.2 188.5L441.9 188.5L446.8 208.7L447.0 208.7L452.3 188.5L458.1 188.5L463.4 208.7L463.6 208.7L468.4 188.5L475.2 188.5L466.8 217.5L460.8 217.5L455.3 198.5L455.1 198.5L449.5 217.5ZM497.8 217.5L478.1 217.5L478.1 188.5L497.7 188.5L497.7 193.5L484.3 193.5L484.3 200.5L496.7 200.5L496.7 205.5L484.3 205.5L484.3 212.5L497.8 212.5L497.8 217.5Z M521.6 217.5L521.6 217.5L511.3 217.5L511.3 188.5L521.6 188.5Q526.0 188.5 529.2 190.2Q532.4 191.9 534.1 195.2Q535.8 198.4 535.8 203.0L535.8 203.0Q535.8 207.5 534.1 210.8Q532.4 214.1 529.2 215.8Q526.0 217.5 521.6 217.5ZM517.4 193.7L517.4 212.3L521.3 212.3Q524.0 212.3 525.9 211.3Q527.8 210.3 528.7 208.3Q529.7 206.2 529.7 203.0L529.7 203.0Q529.7 199.7 528.7 197.7Q527.8 195.7 525.9 194.7Q524.0 193.7 521.3 193.7L521.3 193.7L517.4 193.7ZM566.8 203L566.8 203Q566.8 207.8 565.0 211.1Q563.2 214.4 560.1 216.2Q557.0 217.9 553.1 217.9L553.1 217.9Q549.3 217.9 546.2 216.2Q543.1 214.4 541.3 211.1Q539.5 207.7 539.5 203L539.5 203Q539.5 198.2 541.3 194.9Q543.1 191.6 546.2 189.8Q549.3 188.1 553.1 188.1L553.1 188.1Q557.0 188.1 560.1 189.8Q563.2 191.6 565.0 194.9Q566.8 198.2 566.8 203ZM560.5 203L560.5 203Q560.5 199.9 559.6 197.8Q558.7 195.7 557.0 194.6Q555.4 193.5 553.1 193.5L553.1 193.5Q550.9 193.5 549.2 194.6Q547.6 195.7 546.7 197.8Q545.7 199.9 545.7 203L545.7 203Q545.7 206.1 546.7 208.2Q547.6 210.3 549.2 211.4Q550.9 212.5 553.1 212.5L553.1 212.5Q555.4 212.5 557.0 211.4Q558.7 210.3 559.6 208.2Q560.5 206.1 560.5 203Z M587.7 193.5L578.8 193.5L578.8 188.5L602.7 188.5L602.7 193.5L593.8 193.5L593.8 217.5L587.7 217.5L587.7 193.5ZM612.5 217.5L606.3 217.5L606.3 188.5L612.5 188.5L612.5 200.5L625.0 200.5L625.0 188.5L631.1 188.5L631.1 217.5L625.0 217.5L625.0 205.5L612.5 205.5L612.5 217.5ZM635.9 188.5L642.0 188.5L642.0 217.5L635.9 217.5L635.9 188.5ZM668.5 196.8L662.6 196.8Q662.4 195.1 661.1 194.2Q659.8 193.2 657.6 193.2L657.6 193.2Q656.1 193.2 655.0 193.6Q654.0 194.0 653.5 194.8Q652.9 195.5 652.9 196.5L652.9 196.5Q652.9 197.2 653.2 197.8Q653.6 198.4 654.2 198.8Q654.9 199.2 655.7 199.5Q656.6 199.8 657.5 200.1L657.5 200.1L660.1 200.7Q662.0 201.1 663.6 201.8Q665.2 202.5 666.4 203.6Q667.5 204.6 668.2 206.0Q668.8 207.4 668.8 209.2L668.8 209.2Q668.8 211.9 667.5 213.9Q666.1 215.8 663.6 216.9Q661.1 218.0 657.6 218.0L657.6 218.0Q654.0 218.0 651.4 216.9Q648.8 215.8 647.4 213.7Q645.9 211.6 645.8 208.4L645.8 208.4L651.8 208.4Q651.9 209.9 652.6 210.8Q653.4 211.8 654.6 212.3Q655.9 212.8 657.5 212.8L657.5 212.8Q659.0 212.8 660.2 212.3Q661.4 211.9 662.0 211.1Q662.6 210.3 662.6 209.2L662.6 209.2Q662.6 208.2 662.1 207.6Q661.5 206.9 660.4 206.4Q659.3 206.0 657.7 205.6L657.7 205.6L654.5 204.8Q650.9 203.9 648.7 202.0Q646.6 200.1 646.6 196.9L646.6 196.9Q646.6 194.2 648.0 192.2Q649.4 190.3 651.9 189.2Q654.4 188.1 657.6 188.1L657.6 188.1Q660.9 188.1 663.3 189.2Q665.7 190.3 667.1 192.2Q668.4 194.2 668.5 196.8L668.5 196.8Z M699.8 188.5L705.9 188.5L705.9 217.5L700.6 217.5L688.0 199.2L687.8 199.2L687.8 217.5L681.6 217.5L681.6 188.5L687.0 188.5L699.6 206.8L699.8 206.8L699.8 188.5ZM737.4 203L737.4 203Q737.4 207.8 735.6 211.1Q733.8 214.4 730.7 216.2Q727.6 217.9 723.8 217.9L723.8 217.9Q719.9 217.9 716.8 216.2Q713.8 214.4 712.0 211.1Q710.2 207.7 710.2 203L710.2 203Q710.2 198.2 712.0 194.9Q713.8 191.6 716.8 189.8Q719.9 188.1 723.8 188.1L723.8 188.1Q727.6 188.1 730.7 189.8Q733.8 191.6 735.6 194.9Q737.4 198.2 737.4 203ZM731.2 203L731.2 203Q731.2 199.9 730.3 197.8Q729.4 195.7 727.7 194.6Q726.0 193.5 723.8 193.5L723.8 193.5Q721.6 193.5 719.9 194.6Q718.2 195.7 717.3 197.8Q716.4 199.9 716.4 203L716.4 203Q716.4 206.1 717.3 208.2Q718.2 210.3 719.9 211.4Q721.6 212.5 723.8 212.5L723.8 212.5Q726.0 212.5 727.7 211.4Q729.4 210.3 730.3 208.2Q731.2 206.1 731.2 203ZM748.2 193.5L739.2 193.5L739.2 188.5L763.1 188.5L763.1 193.5L754.2 193.5L754.2 217.5L748.2 217.5L748.2 193.5Z M410.1 273.5L397.7 273.5L397.7 244.5L409.4 244.5Q412.6 244.5 414.7 245.4Q416.9 246.4 417.9 248.0Q419.0 249.7 419.0 251.9L419.0 251.9Q419.0 253.6 418.3 254.9Q417.7 256.2 416.5 257.0Q415.3 257.8 413.8 258.2L413.8 258.2L413.8 258.4Q415.4 258.5 416.9 259.4Q418.3 260.3 419.2 261.8Q420.2 263.4 420.2 265.5L420.2 265.5Q420.2 267.8 419.0 269.6Q417.9 271.4 415.6 272.5Q413.4 273.5 410.1 273.5L410.1 273.5ZM403.9 260.8L403.9 268.5L408.9 268.5Q411.4 268.5 412.6 267.5Q413.8 266.5 413.8 264.9L413.8 264.9Q413.8 263.7 413.2 262.8Q412.6 261.8 411.6 261.3Q410.5 260.8 409.0 260.8L409.0 260.8L403.9 260.8ZM403.9 249.4L403.9 256.6L408.4 256.6Q409.7 256.6 410.7 256.2Q411.7 255.7 412.2 254.9Q412.8 254.1 412.8 252.9L412.8 252.9Q412.8 251.4 411.7 250.4Q410.6 249.4 408.5 249.4L408.5 249.4L403.9 249.4ZM443.5 273.5L423.8 273.5L423.8 244.5L443.4 244.5L443.4 249.5L430.0 249.5L430.0 256.5L442.4 256.5L442.4 261.5L430.0 261.5L430.0 268.5L443.5 268.5L443.5 273.5ZM473.7 254.6L473.7 254.6L467.5 254.6Q467.3 253.4 466.8 252.5Q466.2 251.5 465.4 250.9Q464.6 250.2 463.5 249.9Q462.4 249.5 461.2 249.5L461.2 249.5Q458.9 249.5 457.3 250.6Q455.6 251.7 454.7 253.9Q453.7 256.0 453.7 259L453.7 259Q453.7 262.1 454.7 264.2Q455.6 266.3 457.3 267.4Q458.9 268.5 461.2 268.5L461.2 268.5Q462.4 268.5 463.4 268.2Q464.5 267.8 465.3 267.2Q466.2 266.6 466.7 265.7Q467.2 264.8 467.5 263.6L467.5 263.6L473.7 263.6Q473.4 265.6 472.5 267.5Q471.5 269.3 469.9 270.8Q468.3 272.3 466.1 273.1Q463.8 273.9 461.1 273.9L461.1 273.9Q457.2 273.9 454.1 272.2Q451.0 270.4 449.3 267.1Q447.5 263.7 447.5 259L447.5 259Q447.5 254.2 449.3 250.9Q451.1 247.6 454.1 245.8Q457.2 244.1 461.1 244.1L461.1 244.1Q463.6 244.1 465.7 244.8Q467.9 245.5 469.6 246.8Q471.3 248.2 472.3 250.2Q473.4 252.1 473.7 254.6ZM489.6 251.1L482.3 273.5L475.7 273.5L485.7 244.5L493.6 244.5L503.7 273.5L497.1 273.5L489.8 251.1L489.6 251.1ZM481.8 266.9L481.8 262.1L497.4 262.1L497.4 266.9L481.8 266.9ZM524.8 262.8L524.8 244.5L531.0 244.5L531.0 263.3Q531.0 266.5 529.4 268.9Q527.9 271.3 525.2 272.6Q522.5 274.0 518.9 274.0L518.9 274.0Q515.3 274.0 512.6 272.6Q509.8 271.3 508.3 268.9Q506.8 266.5 506.8 263.3L506.8 263.3L506.8 244.5L513.0 244.5L513.0 262.8Q513.0 264.5 513.7 265.8Q514.4 267.1 515.8 267.8Q517.1 268.5 518.9 268.5L518.9 268.5Q520.7 268.5 522.0 267.8Q523.3 267.1 524.1 265.8Q524.8 264.5 524.8 262.8L524.8 262.8ZM557.4 252.8L551.5 252.8Q551.3 251.1 550.0 250.2Q548.7 249.2 546.5 249.2L546.5 249.2Q545.0 249.2 544.0 249.6Q542.9 250.0 542.4 250.8Q541.8 251.5 541.8 252.5L541.8 252.5Q541.8 253.2 542.2 253.8Q542.5 254.4 543.2 254.8Q543.8 255.2 544.6 255.5Q545.5 255.8 546.4 256.1L546.4 256.1L549.0 256.7Q550.9 257.1 552.5 257.8Q554.1 258.5 555.3 259.6Q556.5 260.6 557.1 262.0Q557.7 263.4 557.8 265.2L557.8 265.2Q557.7 267.9 556.4 269.9Q555.1 271.8 552.5 272.9Q550.0 274.0 546.5 274.0L546.5 274.0Q542.9 274.0 540.3 272.9Q537.7 271.8 536.3 269.7Q534.8 267.6 534.7 264.4L534.7 264.4L540.7 264.4Q540.8 265.9 541.5 266.8Q542.3 267.8 543.5 268.3Q544.8 268.8 546.4 268.8L546.4 268.8Q548.0 268.8 549.1 268.3Q550.3 267.9 550.9 267.1Q551.6 266.3 551.6 265.2L551.6 265.2Q551.6 264.2 551.0 263.6Q550.4 262.9 549.3 262.4Q548.2 262.0 546.6 261.6L546.6 261.6L543.4 260.8Q539.8 259.9 537.6 258.0Q535.5 256.1 535.5 252.9L535.5 252.9Q535.5 250.2 536.9 248.2Q538.4 246.3 540.9 245.2Q543.4 244.1 546.5 244.1L546.5 244.1Q549.8 244.1 552.2 245.2Q554.6 246.3 556.0 248.2Q557.3 250.2 557.4 252.8L557.4 252.8ZM581.2 273.5L561.6 273.5L561.6 244.5L581.2 244.5L581.2 249.5L567.7 249.5L567.7 256.5L580.2 256.5L580.2 261.5L567.7 261.5L567.7 268.5L581.2 268.5L581.2 273.5Z M595.2 244.5L601.4 244.5L601.4 273.5L595.2 273.5L595.2 244.5ZM613.9 249.5L605.0 249.5L605.0 244.5L628.9 244.5L628.9 249.5L620.0 249.5L620.0 273.5L613.9 273.5L613.9 249.5Z M641.5 244.5L647.7 244.5L647.7 273.5L641.5 273.5L641.5 244.5ZM674.1 252.8L668.2 252.8Q668.0 251.1 666.7 250.2Q665.4 249.2 663.2 249.2L663.2 249.2Q661.7 249.2 660.7 249.6Q659.6 250.0 659.1 250.8Q658.5 251.5 658.5 252.5L658.5 252.5Q658.5 253.2 658.9 253.8Q659.2 254.4 659.9 254.8Q660.5 255.2 661.4 255.5Q662.2 255.8 663.1 256.1L663.1 256.1L665.8 256.7Q667.7 257.1 669.3 257.8Q670.8 258.5 672.0 259.6Q673.2 260.6 673.8 262.0Q674.5 263.4 674.5 265.2L674.5 265.2Q674.5 267.9 673.1 269.9Q671.8 271.8 669.3 272.9Q666.7 274.0 663.2 274.0L663.2 274.0Q659.7 274.0 657.1 272.9Q654.5 271.8 653.0 269.7Q651.5 267.6 651.5 264.4L651.5 264.4L657.4 264.4Q657.5 265.9 658.3 266.8Q659.0 267.8 660.3 268.3Q661.5 268.8 663.1 268.8L663.1 268.8Q664.7 268.8 665.8 268.3Q667.0 267.9 667.6 267.1Q668.3 266.3 668.3 265.2L668.3 265.2Q668.3 264.2 667.7 263.6Q667.1 262.9 666.0 262.4Q664.9 262.0 663.3 261.6L663.3 261.6L660.2 260.8Q656.5 259.9 654.4 258.0Q652.2 256.1 652.2 252.9L652.2 252.9Q652.2 250.2 653.7 248.2Q655.1 246.3 657.6 245.2Q660.1 244.1 663.3 244.1L663.3 244.1Q666.5 244.1 668.9 245.2Q671.3 246.3 672.7 248.2Q674.0 250.2 674.1 252.8L674.1 252.8Z M706.9 273.5L687.2 273.5L687.2 244.5L706.8 244.5L706.8 249.5L693.4 249.5L693.4 256.5L705.8 256.5L705.8 261.5L693.4 261.5L693.4 268.5L706.9 268.5L706.9 273.5ZM723.7 251.1L716.4 273.5L709.8 273.5L719.9 244.5L727.8 244.5L737.8 273.5L731.3 273.5L724.0 251.1L723.7 251.1ZM716.0 266.9L716.0 262.1L731.6 262.1L731.6 266.9L716.0 266.9ZM762.0 252.8L756.1 252.8Q755.9 251.1 754.7 250.2Q753.4 249.2 751.1 249.2L751.1 249.2Q749.6 249.2 748.6 249.6Q747.6 250.0 747.0 250.8Q746.5 251.5 746.5 252.5L746.5 252.5Q746.4 253.2 746.8 253.8Q747.2 254.4 747.8 254.8Q748.4 255.2 749.3 255.5Q750.1 255.8 751.1 256.1L751.1 256.1L753.7 256.7Q755.6 257.1 757.2 257.8Q758.8 258.5 759.9 259.6Q761.1 260.6 761.7 262.0Q762.4 263.4 762.4 265.2L762.4 265.2Q762.4 267.9 761.1 269.9Q759.7 271.8 757.2 272.9Q754.7 274.0 751.1 274.0L751.1 274.0Q747.6 274.0 745.0 272.9Q742.4 271.8 740.9 269.7Q739.5 267.6 739.4 264.4L739.4 264.4L745.3 264.4Q745.4 265.9 746.2 266.8Q746.9 267.8 748.2 268.3Q749.5 268.8 751.0 268.8L751.0 268.8Q752.6 268.8 753.8 268.3Q754.9 267.9 755.6 267.1Q756.2 266.3 756.2 265.2L756.2 265.2Q756.2 264.2 755.6 263.6Q755.1 262.9 753.9 262.4Q752.8 262.0 751.3 261.6L751.3 261.6L748.1 260.8Q744.4 259.9 742.3 258.0Q740.2 256.1 740.2 252.9L740.2 252.9Q740.2 250.2 741.6 248.2Q743.0 246.3 745.5 245.2Q748.0 244.1 751.2 244.1L751.2 244.1Q754.4 244.1 756.8 245.2Q759.3 246.3 760.6 248.2Q762.0 250.2 762.0 252.8L762.0 252.8ZM775.1 263.3L764.5 244.5L771.4 244.5L778.0 257.0L778.3 257.0L784.9 244.5L791.8 244.5L781.2 263.3L781.2 273.5L775.1 273.5L775.1 263.3ZM793.6 269.6L798.6 269.6L798.4 271.1Q798.3 273.0 797.7 274.9Q797.2 276.7 796.7 278.3Q796.1 279.8 795.8 280.6L795.8 280.6L791.8 280.6Q792.1 279.8 792.4 278.3Q792.8 276.8 793.1 275.0Q793.4 273.1 793.5 271.2L793.5 271.2L793.6 269.6Z M438.4 329.5L425.9 329.5L425.9 300.5L437.6 300.5Q440.8 300.5 443.0 301.4Q445.1 302.4 446.2 304.0Q447.3 305.7 447.3 307.9L447.3 307.9Q447.3 309.6 446.6 310.9Q445.9 312.2 444.7 313.0Q443.5 313.8 442.0 314.2L442.0 314.2L442.0 314.4Q443.7 314.5 445.1 315.4Q446.6 316.3 447.5 317.8Q448.4 319.4 448.4 321.5L448.4 321.5Q448.4 323.8 447.2 325.6Q446.1 327.4 443.9 328.5Q441.6 329.5 438.4 329.5L438.4 329.5ZM432.1 316.8L432.1 324.5L437.1 324.5Q439.7 324.5 440.9 323.5Q442.0 322.5 442.0 320.9L442.0 320.9Q442.0 319.7 441.5 318.8Q440.9 317.8 439.8 317.3Q438.7 316.8 437.3 316.8L437.3 316.8L432.1 316.8ZM432.1 305.4L432.1 312.6L436.7 312.6Q437.9 312.6 438.9 312.2Q439.9 311.7 440.5 310.9Q441.0 310.1 441.0 308.9L441.0 308.9Q441.0 307.4 439.9 306.4Q438.8 305.4 436.8 305.4L436.8 305.4L432.1 305.4ZM470.0 318.8L470.0 300.5L476.2 300.5L476.2 319.3Q476.2 322.5 474.7 324.9Q473.2 327.3 470.4 328.6Q467.7 330.0 464.1 330.0L464.1 330.0Q460.5 330.0 457.8 328.6Q455.1 327.3 453.6 324.9Q452.1 322.5 452.1 319.3L452.1 319.3L452.1 300.5L458.2 300.5L458.2 318.8Q458.2 320.5 458.9 321.8Q459.7 323.1 461.0 323.8Q462.3 324.5 464.1 324.5L464.1 324.5Q465.9 324.5 467.2 323.8Q468.6 323.1 469.3 321.8Q470.0 320.5 470.0 318.8L470.0 318.8ZM488.7 305.5L479.8 305.5L479.8 300.5L503.7 300.5L503.7 305.5L494.8 305.5L494.8 329.5L488.7 329.5L488.7 305.5Z M528.7 329.5L516.3 329.5L516.3 300.5L527.9 300.5Q531.1 300.5 533.3 301.4Q535.4 302.4 536.5 304.0Q537.6 305.7 537.6 307.9L537.6 307.9Q537.6 309.6 536.9 310.9Q536.2 312.2 535.0 313.0Q533.9 313.8 532.3 314.2L532.3 314.2L532.3 314.4Q534.0 314.5 535.5 315.4Q536.9 316.3 537.8 317.8Q538.7 319.4 538.7 321.5L538.7 321.5Q538.7 323.8 537.6 325.6Q536.4 327.4 534.2 328.5Q532.0 329.5 528.7 329.5L528.7 329.5ZM522.4 316.8L522.4 324.5L527.5 324.5Q530.0 324.5 531.2 323.5Q532.4 322.5 532.4 320.9L532.4 320.9Q532.4 319.7 531.8 318.8Q531.2 317.8 530.1 317.3Q529.1 316.8 527.6 316.8L527.6 316.8L522.4 316.8ZM522.4 305.4L522.4 312.6L527.0 312.6Q528.3 312.6 529.2 312.2Q530.2 311.7 530.8 310.9Q531.4 310.1 531.4 308.9L531.4 308.9Q531.4 307.4 530.3 306.4Q529.2 305.4 527.1 305.4L527.1 305.4L522.4 305.4ZM562.1 329.5L542.4 329.5L542.4 300.5L562.0 300.5L562.0 305.5L548.6 305.5L548.6 312.5L561.0 312.5L561.0 317.5L548.6 317.5L548.6 324.5L562.1 324.5L562.1 329.5ZM592.3 310.6L592.3 310.6L586.0 310.6Q585.9 309.4 585.3 308.5Q584.8 307.5 584.0 306.9Q583.2 306.2 582.1 305.9Q581.0 305.5 579.8 305.5L579.8 305.5Q577.5 305.5 575.8 306.6Q574.2 307.7 573.2 309.9Q572.3 312.0 572.3 315L572.3 315Q572.3 318.1 573.2 320.2Q574.2 322.3 575.8 323.4Q577.5 324.5 579.7 324.5L579.7 324.5Q581.0 324.5 582.0 324.2Q583.1 323.8 583.9 323.2Q584.7 322.6 585.3 321.7Q585.8 320.8 586.0 319.6L586.0 319.6L592.3 319.6Q592.0 321.6 591.1 323.5Q590.1 325.3 588.5 326.8Q586.9 328.3 584.6 329.1Q582.4 329.9 579.6 329.9L579.6 329.9Q575.7 329.9 572.7 328.2Q569.6 326.4 567.8 323.1Q566.1 319.7 566.1 315L566.1 315Q566.1 310.2 567.9 306.9Q569.7 303.6 572.7 301.8Q575.8 300.1 579.6 300.1L579.6 300.1Q582.2 300.1 584.3 300.8Q586.5 301.5 588.2 302.8Q589.8 304.2 590.9 306.2Q592.0 308.1 592.3 310.6ZM608.1 307.1L600.8 329.5L594.2 329.5L604.3 300.5L612.2 300.5L622.2 329.5L615.6 329.5L608.4 307.1L608.1 307.1ZM600.4 322.9L600.4 318.1L616.0 318.1L616.0 322.9L600.4 322.9ZM643.4 318.8L643.4 300.5L649.5 300.5L649.5 319.3Q649.5 322.5 648.0 324.9Q646.5 327.3 643.8 328.6Q641.1 330.0 637.5 330.0L637.5 330.0Q633.8 330.0 631.1 328.6Q628.4 327.3 626.9 324.9Q625.4 322.5 625.4 319.3L625.4 319.3L625.4 300.5L631.6 300.5L631.6 318.8Q631.6 320.5 632.3 321.8Q633.0 323.1 634.4 323.8Q635.7 324.5 637.5 324.5L637.5 324.5Q639.3 324.5 640.6 323.8Q641.9 323.1 642.6 321.8Q643.4 320.5 643.4 318.8L643.4 318.8ZM675.9 308.8L670.0 308.8Q669.9 307.1 668.6 306.2Q667.3 305.2 665.1 305.2L665.1 305.2Q663.6 305.2 662.5 305.6Q661.5 306.0 660.9 306.8Q660.4 307.5 660.4 308.5L660.4 308.5Q660.4 309.2 660.7 309.8Q661.1 310.4 661.7 310.8Q662.4 311.2 663.2 311.5Q664.0 311.8 665.0 312.1L665.0 312.1L667.6 312.7Q669.5 313.1 671.1 313.8Q672.7 314.5 673.9 315.6Q675.0 316.6 675.7 318.0Q676.3 319.4 676.3 321.2L676.3 321.2Q676.3 323.9 675.0 325.9Q673.6 327.8 671.1 328.9Q668.6 330.0 665.0 330.0L665.0 330.0Q661.5 330.0 658.9 328.9Q656.3 327.8 654.9 325.7Q653.4 323.6 653.3 320.4L653.3 320.4L659.3 320.4Q659.4 321.9 660.1 322.8Q660.9 323.8 662.1 324.3Q663.4 324.8 665.0 324.8L665.0 324.8Q666.5 324.8 667.7 324.3Q668.8 323.9 669.5 323.1Q670.1 322.3 670.1 321.2L670.1 321.2Q670.1 320.2 669.6 319.6Q669.0 318.9 667.9 318.4Q666.8 318.0 665.2 317.6L665.2 317.6L662.0 316.8Q658.3 315.9 656.2 314.0Q654.1 312.1 654.1 308.9L654.1 308.9Q654.1 306.2 655.5 304.2Q656.9 302.3 659.4 301.2Q661.9 300.1 665.1 300.1L665.1 300.1Q668.4 300.1 670.8 301.2Q673.2 302.3 674.5 304.2Q675.9 306.2 675.9 308.8L675.9 308.8ZM699.8 329.5L680.1 329.5L680.1 300.5L699.7 300.5L699.7 305.5L686.3 305.5L686.3 312.5L698.7 312.5L698.7 317.5L686.3 317.5L686.3 324.5L699.8 324.5L699.8 329.5Z M726.4 329.5L720.4 329.5L712.0 300.5L718.8 300.5L723.6 320.7L723.8 320.7L729.1 300.5L734.9 300.5L740.2 320.7L740.4 320.7L745.2 300.5L752.0 300.5L743.6 329.5L737.6 329.5L732.1 310.5L731.9 310.5L726.4 329.5ZM774.6 329.5L754.9 329.5L754.9 300.5L774.5 300.5L774.5 305.5L761.1 305.5L761.1 312.5L773.5 312.5L773.5 317.5L761.1 317.5L761.1 324.5L774.6 324.5L774.6 329.5Z M405.8 361.5L396.9 361.5L396.9 356.5L420.8 356.5L420.8 361.5L411.9 361.5L411.9 385.5L405.8 385.5L405.8 361.5ZM430.5 385.5L424.4 385.5L424.4 356.5L430.5 356.5L430.5 368.5L443.0 368.5L443.0 356.5L449.2 356.5L449.2 385.5L443.0 385.5L443.0 373.5L430.5 373.5L430.5 385.5ZM480.6 371L480.6 371Q480.6 375.8 478.9 379.1Q477.1 382.4 474.0 384.2Q470.9 385.9 467.0 385.9L467.0 385.9Q463.1 385.9 460.1 384.2Q457.0 382.4 455.2 379.1Q453.4 375.7 453.4 371L453.4 371Q453.4 366.2 455.2 362.9Q457.0 359.6 460.1 357.8Q463.1 356.1 467.0 356.1L467.0 356.1Q470.9 356.1 474.0 357.8Q477.1 359.6 478.9 362.9Q480.6 366.2 480.6 371ZM474.4 371L474.4 371Q474.4 367.9 473.5 365.8Q472.6 363.7 470.9 362.6Q469.3 361.5 467.0 361.5L467.0 361.5Q464.8 361.5 463.1 362.6Q461.5 363.7 460.6 365.8Q459.6 367.9 459.6 371L459.6 371Q459.6 374.1 460.6 376.2Q461.5 378.3 463.1 379.4Q464.8 380.5 467.0 380.5L467.0 380.5Q469.3 380.5 470.9 379.4Q472.6 378.3 473.5 376.2Q474.4 374.1 474.4 371ZM502.8 374.8L502.8 356.5L509.0 356.5L509.0 375.3Q509.0 378.5 507.5 380.9Q506.0 383.3 503.3 384.6Q500.5 386.0 496.9 386.0L496.9 386.0Q493.3 386.0 490.6 384.6Q487.9 383.3 486.4 380.9Q484.9 378.5 484.9 375.3L484.9 375.3L484.9 356.5L491.0 356.5L491.0 374.8Q491.0 376.5 491.8 377.8Q492.5 379.1 493.8 379.8Q495.2 380.5 496.9 380.5L496.9 380.5Q498.7 380.5 500.1 379.8Q501.4 379.1 502.1 377.8Q502.8 376.5 502.8 374.8L502.8 374.8ZM539.3 365.9L533.0 365.9Q532.7 364.8 532.2 364.0Q531.6 363.2 530.9 362.7Q530.1 362.1 529.1 361.8Q528.1 361.5 526.9 361.5L526.9 361.5Q524.7 361.5 523.0 362.6Q521.3 363.7 520.4 365.8Q519.5 367.9 519.5 371.0L519.5 371.0Q519.5 374.0 520.4 376.1Q521.3 378.3 523.0 379.4Q524.7 380.5 527.0 380.5L527.0 380.5Q529.1 380.5 530.6 379.8Q532.0 379.0 532.8 377.6Q533.6 376.3 533.6 374.4L533.6 374.4L534.9 374.6L527.4 374.6L527.4 370.0L539.5 370.0L539.5 373.6Q539.5 377.5 537.9 380.2Q536.3 383.0 533.5 384.5Q530.6 385.9 527.0 385.9L527.0 385.9Q522.9 385.9 519.8 384.1Q516.7 382.3 514.9 379.0Q513.2 375.6 513.2 371.0L513.2 371.0Q513.2 367.5 514.2 364.7Q515.3 361.9 517.1 360.0Q519.0 358.1 521.5 357.1Q523.9 356.1 526.8 356.1L526.8 356.1Q529.3 356.1 531.4 356.8Q533.6 357.5 535.2 358.8Q536.9 360.1 537.9 361.9Q539.0 363.7 539.3 365.9L539.3 365.9ZM550.0 385.5L543.8 385.5L543.8 356.5L550.0 356.5L550.0 368.5L562.5 368.5L562.5 356.5L568.6 356.5L568.6 385.5L562.5 385.5L562.5 373.5L550.0 373.5L550.0 385.5ZM581.2 361.5L572.3 361.5L572.3 356.5L596.1 356.5L596.1 361.5L587.2 361.5L587.2 385.5L581.2 385.5L581.2 361.5Z M608.7 356.5L614.9 356.5L614.9 385.5L608.7 385.5L608.7 356.5ZM627.4 361.5L618.5 361.5L618.5 356.5L642.4 356.5L642.4 361.5L633.5 361.5L633.5 385.5L627.4 385.5L627.4 361.5Z M667.5 385.5L661.5 385.5L653.2 356.5L659.9 356.5L664.8 376.7L665.0 376.7L670.3 356.5L676.1 356.5L681.4 376.7L681.6 376.7L686.4 356.5L693.2 356.5L684.8 385.5L678.8 385.5L673.3 366.5L673.1 366.5L667.5 385.5ZM721.2 371L721.2 371Q721.2 375.8 719.4 379.1Q717.6 382.4 714.5 384.2Q711.4 385.9 707.6 385.9L707.6 385.9Q703.7 385.9 700.6 384.2Q697.5 382.4 695.8 379.1Q694.0 375.7 694.0 371L694.0 371Q694.0 366.2 695.8 362.9Q697.5 359.6 700.6 357.8Q703.7 356.1 707.6 356.1L707.6 356.1Q711.4 356.1 714.5 357.8Q717.6 359.6 719.4 362.9Q721.2 366.2 721.2 371ZM715.0 371L715.0 371Q715.0 367.9 714.1 365.8Q713.1 363.7 711.5 362.6Q709.8 361.5 707.6 361.5L707.6 361.5Q705.4 361.5 703.7 362.6Q702.0 363.7 701.1 365.8Q700.2 367.9 700.2 371L700.2 371Q700.2 374.1 701.1 376.2Q702.0 378.3 703.7 379.4Q705.4 380.5 707.6 380.5L707.6 380.5Q709.8 380.5 711.5 379.4Q713.1 378.3 714.1 376.2Q715.0 374.1 715.0 371ZM743.4 374.8L743.4 356.5L749.6 356.5L749.6 375.3Q749.6 378.5 748.0 380.9Q746.5 383.3 743.8 384.6Q741.1 386.0 737.5 386.0L737.5 386.0Q733.9 386.0 731.2 384.6Q728.4 383.3 726.9 380.9Q725.4 378.5 725.4 375.3L725.4 375.3L725.4 356.5L731.6 356.5L731.6 374.8Q731.6 376.5 732.3 377.8Q733.1 379.1 734.4 379.8Q735.7 380.5 737.5 380.5L737.5 380.5Q739.3 380.5 740.6 379.8Q741.9 379.1 742.7 377.8Q743.4 376.5 743.4 374.8L743.4 374.8ZM772.9 385.5L754.3 385.5L754.3 356.5L760.4 356.5L760.4 380.5L772.9 380.5L772.9 385.5ZM787.0 385.5L787.0 385.5L776.7 385.5L776.7 356.5L787.1 356.5Q791.5 356.5 794.6 358.2Q797.8 359.9 799.5 363.2Q801.2 366.4 801.2 371.0L801.2 371.0Q801.2 375.5 799.5 378.8Q797.8 382.1 794.6 383.8Q791.4 385.5 787.0 385.5ZM782.8 361.7L782.8 380.3L786.7 380.3Q789.5 380.3 791.3 379.3Q793.2 378.3 794.1 376.3Q795.1 374.2 795.1 371.0L795.1 371.0Q795.1 367.7 794.1 365.7Q793.2 363.7 791.3 362.7Q789.5 361.7 786.7 361.7L786.7 361.7L782.8 361.7Z M531.2 441.5L518.7 441.5L518.7 412.5L530.4 412.5Q533.6 412.5 535.8 413.4Q537.9 414.4 539.0 416.0Q540.1 417.7 540.1 419.9L540.1 419.9Q540.1 421.6 539.4 422.9Q538.7 424.2 537.5 425.0Q536.3 425.8 534.8 426.2L534.8 426.2L534.8 426.4Q536.5 426.5 537.9 427.4Q539.4 428.3 540.3 429.8Q541.2 431.4 541.2 433.5L541.2 433.5Q541.2 435.8 540.0 437.6Q538.9 439.4 536.7 440.5Q534.4 441.5 531.2 441.5L531.2 441.5ZM524.9 428.8L524.9 436.5L529.9 436.5Q532.5 436.5 533.7 435.5Q534.8 434.5 534.8 432.9L534.8 432.9Q534.8 431.7 534.3 430.8Q533.7 429.8 532.6 429.3Q531.5 428.8 530.1 428.8L530.1 428.8L524.9 428.8ZM524.9 417.4L524.9 424.6L529.5 424.6Q530.7 424.6 531.7 424.2Q532.7 423.7 533.3 422.9Q533.8 422.1 533.8 420.9L533.8 420.9Q533.8 419.4 532.7 418.4Q531.6 417.4 529.6 417.4L529.6 417.4L524.9 417.4ZM564.5 441.5L544.9 441.5L544.9 412.5L564.5 412.5L564.5 417.5L551.0 417.5L551.0 424.5L563.5 424.5L563.5 429.5L551.0 429.5L551.0 436.5L564.5 436.5L564.5 441.5Z M597.7 441.5L578.0 441.5L578.0 412.5L597.6 412.5L597.6 417.5L584.2 417.5L584.2 424.5L596.6 424.5L596.6 429.5L584.2 429.5L584.2 436.5L597.7 436.5L597.7 441.5ZM614.5 419.1L607.2 441.5L600.6 441.5L610.6 412.5L618.6 412.5L628.6 441.5L622.0 441.5L614.7 419.1L614.5 419.1ZM606.8 434.9L606.8 430.1L622.4 430.1L622.4 434.9L606.8 434.9ZM652.8 420.8L646.9 420.8Q646.7 419.1 645.4 418.2Q644.1 417.2 641.9 417.2L641.9 417.2Q640.4 417.2 639.4 417.6Q638.3 418.0 637.8 418.8Q637.2 419.5 637.2 420.5L637.2 420.5Q637.2 421.2 637.6 421.8Q637.9 422.4 638.6 422.8Q639.2 423.2 640.0 423.5Q640.9 423.8 641.8 424.1L641.8 424.1L644.4 424.7Q646.4 425.1 647.9 425.8Q649.5 426.5 650.7 427.6Q651.9 428.6 652.5 430.0Q653.2 431.4 653.2 433.2L653.2 433.2Q653.2 435.9 651.8 437.9Q650.5 439.8 648.0 440.9Q645.4 442.0 641.9 442.0L641.9 442.0Q638.4 442.0 635.7 440.9Q633.1 439.8 631.7 437.7Q630.2 435.6 630.2 432.4L630.2 432.4L636.1 432.4Q636.2 433.9 637.0 434.8Q637.7 435.8 639.0 436.3Q640.2 436.8 641.8 436.8L641.8 436.8Q643.4 436.8 644.5 436.3Q645.7 435.9 646.3 435.1Q647.0 434.3 647.0 433.2L647.0 433.2Q647.0 432.2 646.4 431.6Q645.8 430.9 644.7 430.4Q643.6 430.0 642.0 429.6L642.0 429.6L638.9 428.8Q635.2 427.9 633.0 426.0Q630.9 424.1 630.9 420.9L630.9 420.9Q630.9 418.2 632.3 416.2Q633.8 414.3 636.3 413.2Q638.8 412.1 641.9 412.1L641.9 412.1Q645.2 412.1 647.6 413.2Q650.0 414.3 651.4 416.2Q652.7 418.2 652.8 420.8L652.8 420.8ZM665.9 431.3L655.3 412.5L662.2 412.5L668.8 425.0L669.1 425.0L675.7 412.5L682.6 412.5L672.0 431.3L672.0 441.5L665.9 441.5L665.9 431.3Z "/></svg>